# xmcd
#
# Track frame offsets: 
#        150
#        20892
#        36805
#        62592
#        75822
#        93587
#        109475
#        122105
#        135122
#        149370
#        162297
#        172885
#
# Disc length: 2609 seconds
#
# Revision: 11
# Processed by: cddbd v1.5.2PL0 Copyright (c) Steve Scherf et al.
# Submitted via: ExactAudioCopy v1.0b6
#
DISCID=970a2f0c
DTITLE=Fleetwood Mac - Greatest Hits
DYEAR=1989
DGENRE=Rock
TTITLE0=The Green Manalishi (With The Two Pronged Crown)
TTITLE1=Oh Well - Part 1
TTITLE2=Oh Well - Part 2
TTITLE3=Shake Your Money Maker
TTITLE4=Need Your Love So Bad
TTITLE5=Rattle Snake Shake
TTITLE6=Dragonfly
TTITLE7=Black Magic Woman
TTITLE8=Albatross
TTITLE9=Man Of The World
TTITLE10=Stop Messin' Round
TTITLE11=Love That Burns
EXTD=YEAR: 1989
EXTT0=
EXTT1=
EXTT2=
EXTT3=
EXTT4=
EXTT5=
EXTT6=
EXTT7=
EXTT8=
EXTT9=
EXTT10=
EXTT11=
PLAYORDER=
